<svg width="17" height="8" viewBox="0 0 17 8" fill="none" xmlns="http://www.w3.org/2000/svg">
<path d="M3.17871 5.13867L1.41602 8H0.0878906L2.10449 4.86035C1.87663 4.77897 1.6569 4.66178 1.44531 4.50879C1.23698 4.35579 1.06608 4.14746 0.932617 3.88379C0.802409 3.61686 0.737305 3.2832 0.737305 2.88281C0.737305 2.22526 0.965169 1.72396 1.4209 1.37891C1.87988 1.03385 2.54232 0.861328 3.4082 0.861328H5.55176V8H4.37988V5.13867H3.17871ZM4.37988 1.83301H3.45703C3.12826 1.83301 2.84993 1.87207 2.62207 1.9502C2.39421 2.02507 2.22168 2.14551 2.10449 2.31152C1.9873 2.47428 1.92871 2.68913 1.92871 2.95605C1.92871 3.34017 2.05566 3.63802 2.30957 3.84961C2.56348 4.0612 2.95085 4.16699 3.47168 4.16699H4.37988V1.83301ZM6.8457 5.80273V4.83105H9.36523V5.80273H6.8457ZM15.0781 8L14.3799 6.01758H11.6504L10.9521 8H9.7168L12.373 0.832031H13.6719L16.3232 8H15.0781ZM14.0771 5.01172L13.3984 3.05859C13.3724 2.97396 13.335 2.85514 13.2861 2.70215C13.2373 2.5459 13.1885 2.38802 13.1396 2.22852C13.0908 2.06576 13.0501 1.92904 13.0176 1.81836C12.985 1.95182 12.9443 2.10156 12.8955 2.26758C12.8499 2.43034 12.8044 2.58333 12.7588 2.72656C12.7165 2.86979 12.6839 2.98047 12.6611 3.05859L11.9775 5.01172H14.0771Z" fill="#9873FF"/>
</svg>
